<?xml version="1.0" encoding="UTF-8"?>
<svg version="1.1" viewBox="0 0 1352 1352" width="1280" height="1280" xmlns="http://www.w3.org/2000/svg">
<path transform="translate(0)" d="m0 0h1352v1352h-1352z" fill="#FDFDFD"/>
<path transform="translate(1116,101)" d="m0 0h8l6 3 4 5v2l10 2 6 5 1 2v10l-2 2v6l1 2v8l-5 6-6 4-3 5-4 3-11 1 4 6v7l-3 7v10l-3 9-5 3-2 6-3 4-4 2h-8l-2 9-6 9-8 4-7 3-1 9 3 2-1 4-7 6-9 2-5-3-3-9h2v-2h2v-5l-8 4-2 3v13l2 4 2 1v124h23v-119l5-5 4-6 3-11 9 2 17 6 5 5 6 10 9 20 10 23 6 12v23l-6 26-5 19-9-1-14-4-5 5-3 5v6l5 5v7l-1 4h7l1 6h18v-14l1-6 5 1v19l34 1 1 3v72l-4 2-65 1-1 3 3 28 4 62 2 15h2l3 8-1 17-3 10h-5l-1-1v-10l-6 2-11 8-13 4h-15l1-5 8-11 5-5 11-12 3-6v-2l-9 2v2l-13 4-15 5-3-1v11l-5 15-4 3-4-1 1-9-8 2-18 8h-14l-7-3 2-4 7-6h2v-4l-8 1h-51l-30-3-12-7-3-3v-2l-8-2-19-2 4 4 2 1v2l5 2 9 5 10 5h12l5 3 7 9v2l-2 1h-16l-12-3-14-7 1 9-7-1-3-7-2-10v-12l-13-2-7-3h-5l-1 2-4 1-14 1-13 8-8 8-1 2 16-3 15-8 9-7h2v15l-4 15-7 1v-9h-5l-1 3-7 4-11 3h-19l1-7-2 1h-80l-2-1v-76l2-1h41v-21h-2l-13-17-9-15-8-17-6-18-4-21v-20l4-37v-48l-3-20-6-31-1-9v-18l3-21 6-24 6-14 8-16 11-16 12-14 12-12 14-11 11-8h2l2-13 6-12 5-5 5-4 7-3h14l9 5 4 3 8 4 5 1 13-2 5-1h34l21 3 9 2 20 6 13 5 16 8 13 8 8 6 5 6 1-17 5-9 8-7 10-4h8l12 1 17-4 9-1 5-5 4-3 3-5 5-4 7-1 6-5z" fill="#88A2EB"/>
<path transform="translate(444,732)" d="m0 0h29l21 3 24 9 16 8 16 9 16 12 19 1 1 20 9 11 12 18 11 20 10 25 9 27 5 27 3 27 1 4v39l-3 21-4 23-6 24-7 22-5 12-13 27-10 16-7 10-11 14-14 15-7 7-9 6v8l10 42 2 8 2 10h-5l-3-9-3-13-8-33-2-7-2-11-2-7h-72l-1 83-1 1h-5v-38l-24-1-34-2-20-1-4 19-5 19h-5l1-6 3-14 4-16-23 4-33 7-25 3h-2l-1 4 7 2 10 10v3l-8 2h-12l-10-4-14-7v10l-5 1-3-3-4-13-1-6 1-7-7-1-17-6-10-5-5-1 3 10 9 10 7 8 5 6 3 4v4h-15l-8-2-14-8-3-3-3-1v9l-1 2h-5l-2-6-1-4v-17l3-7h2v-8l2-10-17-16-8-8-11-14-9-14-6-10-9-20-6-19-5-23-2-19v-13l2-22 3-17 6-21 8-21 9-17 4-9 10-20 12-19 10-15 8-9 10-5 13-4h4l4 12 8 9v98l-10-3-7-1 6 3v2l6 1 6 3 1 11 20 1v-83l1-38 2-2 1-17 4-3h3v-2h3v-2l6-4h2v-2l11-9 8-8 7-8 12-16 8-10 23-23 11-9 15-10 18-10 16-6 17-5z" fill="#88A2EB"/>
<path transform="translate(843,881)" d="m0 0h131l1 3v141l-6 1-34 1h-16v10h42l1 2h7l1-3 21-11 1-2 5-49 3-13 5-10 5-4 13-4h6l2 21 5 19 3 10h2l2-5 8-16 6-14 3-17 18 4 10 4 2 3 29 1 5 5 1 87 104 1v14l-1 2-15 1-1 1-1 196h-453l-1-197-14-1-2-1v-15l65-1 1-7 1-1 44-1v-8l-49-1-6-3-2-2v-137l3-3z" fill="#875D3E"/>
<path transform="translate(380,283)" d="m0 0h169l1 131-1 1-51 1-1 16 38 1 2 6 91 1v15l-1 1-16 1-1 173h-209v-19h-48v17l11 10 14 10 8 7 3 4-9 2h-19l-17-7-5-3 1 10h-8l-4-12-2-11 2-9 1-1v-17l-29 1-2 9 1 5 9 11 7 7 12 16v2h-20l-12-5-8-5-2-1-2 8-6 5-2 1-9-1-5-6-1-2v-8h-12l-1 8-3 5-4 3h-10l-7-7-1-8-12-1 1 7-3 6-7 4-8-1-5-4-2-4v-7l3-5 6-5 3-5 25-1v-22h-43v19h-17v-155l1-19h-19v-16l1-1 23 1v-19l1-10 6-1 1-5 2-30 3-15 8-9 14-7 17-3h25l15 3 13 5 8 6 6 7 14 27 12 22 2 5 54 4 2 1v20l15-1 7-1 1-4 6 1 14 3-1-6 17-1 1-17h-52z" fill="#482423"/>
<path transform="translate(843,881)" d="m0 0h131l1 3v141l-6 1-34 1h-16v10h42l1 2h7l1-3 21-11 1-2 5-49 3-13 5-10 5-4 13-4h6l2 21 5 19 3 10h2l2-5 8-16 6-14 3-17 18 4 10 4 2 3 29 1 5 5 1 87 104 1v14l-1 2-15 1-1 1-1 196h-453l-1-197-14-1-2-1v-15l65-1 1-7 1-1 44-1v-8l-49-1-6-3-2-2v-137l3-3zm-51 195-13 1-1 2-1 125v30l1 4 3 1h9l9 2 3-1h11l4 1v-2l8 3 5 3h32l5 2 7-2v2l7-1h3l6 2 7-1 2 1 6-1 2 1 5-1 3 1 8-1 4 2 2-1 6 1 2-1 7 1 1-1 7 1 1-1 7 1 1-1 7 1 1-1 9 1h62 3 5 4 12v-2l10 2 3-1 9-1 7-2 1 2 7 1v-2l9-1 5 1v-2l10 1h5l5-1 4-2 4-1 10 1 2 2 4-1 1-1 17-3 6-1 5-1 4-3v-152l-2-4-11-1h-361l-21-1z" fill="#885E3F"/>
<path transform="translate(364,798)" d="m0 0h209v300l-1 1h-208l-1-158 4-3h2v-2h4v2l18-4 8-6 6-7 2-3 51-1 1-2h-49l-5-6-4-2-13 1-9 3h-6v-7h-3l-2 6-4 2-1-113z" fill="#FCFCFC"/>
<path transform="translate(837,257)" d="m0 0h6l2 12 4 13 7 16 6 11 3 5v2h3l1-7 3-7 5-22 2-22 18 4 7 5 6 10 4 13 3 26 3 44 1 11-6 11v8l5 5 11 9 6 4v2l-6-1-9-4v18l-3 1-12-1v65l-4 99-2 42-1 2-8-2-19-2 4 4 2 1v2l5 2 9 5 10 5h12l5 3 7 9v2l-2 1h-16l-12-3-14-7 1 9-7-1-3-7-2-10v-12l-13-2-7-3h-5l-1 2-4 1-14 1-13 8-8 8-1 2 16-3 15-8 9-7h2v15l-4 15-7 1v-9h-5l-1 3-7 4-11 3h-19l1-7-2 1h-80l-2-1v-76l2-1h41v-21h38l1 21 25-1-4-90-1-30v-43l2-31 2-19v-32l-5-14-6-14-3-10v-14l5-10 7-6 12-4z" fill="#603B30"/>
<path transform="translate(1017,348)" d="m0 0h2l-3 31-2 23v72l1 21 1 3 8 4 15 4 19 1 2 6 2 1 13 2 2 2 3 26 4 29 5 32 1 15-1 2-6 1v2l-13 4-15 5-3-1v11l-5 15-4 3-4-1 1-9-8 2-18 8h-14l-7-3 2-4 7-6h2v-4l-8 1h-51l-30-3-12-7-3-3 5-116 1-29 1-65h14l1-18 5 1 10 4v-2l-4-2-12-9-5-4-2-3v-8l6-11 7-3h19l8 5 9 14 4-1 18-13 19-14z" fill="#88A2EB"/>
<path transform="translate(444,732)" d="m0 0h29l21 3 24 9 16 8 16 9 16 12 19 1v22l-4 2-217 1 1 112 3-2 2-6 4 1-1 7 7-2 14-3h7l6 4 3 4 49 1-1 3-51 1-6 8-8 7-9 3-11 1v-2h-4v2l-27 14-18 9-9 1-8-6-12-15-9-13-2-1 1 6 2 32 4 45v53l-1 26-2 9-9 5-14 2-1 1h-33l-18-2-19-4-1-1-1-14-1-82-1-7 21 9v2l10 5-1-5-4-2-2-3 9 1 2 2 4 1 2-4 3-1 22 1v-83l1-38 2-2 1-17 4-3h3v-2h3v-2l6-4h2v-2l11-9 8-8 7-8 12-16 8-10 23-23 11-9 15-10 18-10 16-6 17-5z" fill="#87A1EA"/>
<path transform="translate(402,456)" d="m0 0h209l-1 174h-209v-19h-46v-1h46v-138z" fill="#764E3D"/>
<path transform="translate(789,149)" d="m0 0 2 4v9l2 18 5 26-1 16-5 8-8-1-6-2 3 6 9 10 10 6 15 1 10-5 5-7 4-1 11 8 3 2v7l-4 3-20 4-9 3-6 5-5 10v14l6 18 7 16 1 4v32l-3 30-1 20v43l3 74 2 46-1 1h-25l-1-3v-18h-40l-13-17-9-15-8-17-6-18-4-21v-20l4-37v-48l-3-20-6-31-1-9v-18l3-21 6-24 6-14 8-16 11-16 12-14 12-12 14-11z" fill="#88A2EB"/>
<path transform="translate(1084,258)" d="m0 0 9 2 17 6 5 5 6 10 9 20 10 23 6 12v23l-6 26-5 19-9-1-14-4-5 5-3 5v6l5 5v7l-1 4h7l1 6h18v-14l1-6 5 1v19l34 1 1 3v72l-4 2-65 1-1 3 3 28 4 62 2 15h2l3 8-1 17-3 10h-5l-1-1v-10l-6 2-11 8-13 4h-15l1-5 8-11 5-5 11-12 3-6v-2l-3-1-1-15-8-52-3-23-1-12-4-2-10-1-4-3v-5h-19l-17-5-7-4-1-3-1-21v-72l4-47 2-7-10 8-17 13-18 13-8 6-4-1-9-14-4-4 6-4 13-10 12-9 9-7 7-8 4-11 9-33 5-13 8-9 16-6h6l1 11 2 4 2 1v124h23v-119l5-5 4-6z" fill="#3E4E5B"/>
<path transform="translate(218,866)" d="m0 0h4l4 12 8 9v98l-10-3-7-1 6 3v2l6 1 6 3 1 12-5 1-2 3-5-1-4-2h-5l5 4 1 5-4-1-6-4v-2l-10-3-10-5 1 6 1 82 1 14 19 4 18 2h33l7-2 8-1 6-2h2l-2 5-2 23-5 78v16l4 4 9 6 1 1v6l7 2 10 10v3l-8 2h-12l-10-4-14-7v10l-5 1-3-3-4-13-1-6 1-7-7-1-17-6-10-5-5-1 3 10 9 10 7 8 5 6 3 4v4h-15l-8-2-14-8-3-3-3-1v9l-1 2h-5l-2-6-1-4v-17l3-7h2v-8l2-10-17-16-8-8-11-14-9-14-6-10-9-20-6-19-5-23-2-19v-13l2-22 3-17 6-21 8-21 9-17 4-9 10-20 12-19 10-15 8-9 10-5z" fill="#88A2EB"/>
<path transform="translate(187,409)" d="m0 0h48l29 1 1 1v69l-1 1h-48l1-7 7-2 1-11h-34l-2 1v9l11 4 1 6h-21v38l19-2 5-1 3 1 107 1 1 1v12h42l-1 5-3 2 3 1v21l-2 51-1 8v9l11 10 14 10 8 7 3 4-9 2h-19l-17-7-5-3 1 10h-8l-4-12-2-11 2-9 1-1v-17l-29 1-2 9 1 5 9 11 7 7 12 16v2h-20l-12-5-8-5-2-1-2 8-6 5-2 1-9-1-5-6-1-2v-8h-12l-1 8-3 5-4 3h-10l-7-7-1-8-12-1 1 7-3 6-7 4-8-1-5-4-2-4v-7l3-5 6-5 3-5 25-1v-22h-43v19h-17v-155l1-19h-19v-16l1-1 23 1v-19l1-10z" fill="#C1465B"/>
<path transform="translate(843,881)" d="m0 0h131l1 3v141l-6 1-34 1h-16v9h-1l-1-8h-65l-49-1-6-3-2-2v-137l3-3z" fill="#717B7C"/>
<path transform="translate(284,927)" d="m0 0 3 1 12 17 11 13 5 3 9-1 38-19 2 2v156h40l-1 10-10 43-6 27-9 37-1 6h-9l-48 10-25 3-4-2-10-7-4-4v-16l6-90 1-11 3-5-5 1 2-2 3-1 2-9 1-26v-53l-5-58z" fill="#88A2EB"/>
<path transform="translate(758,1062)" d="m0 0h48l176 1h53l129-1h47v198h-453zm34 14-13 1-1 2-1 125v30l1 4 3 1h9l9 2 3-1h11l4 1v-2l8 3 5 3h32l5 2 7-2v2l7-1h3l6 2 7-1 2 1 6-1 2 1 5-1 3 1 8-1 4 2 2-1 6 1 2-1 7 1 1-1 7 1 1-1 7 1 1-1 7 1 1-1 9 1h62 3 5 4 12v-2l10 2 3-1 9-1 7-2 1 2 7 1v-2l9-1 5 1v-2l10 1h5l5-1 4-2 4-1 10 1 2 2 4-1 1-1 17-3 6-1 5-1 4-3v-152l-2-4-11-1h-361l-21-1z" fill="#764E3D"/>
<path transform="translate(439,288)" d="m0 0h105v120h-120l-37-1v-118z" fill="#D8E1E7"/>
<path transform="translate(261,867)" d="m0 0 7 1 12 3 6 4 6 7 15 28 14 24v2l10-3 25-11 5-1 2 10h2v3l3 1-1 4-23 12-20 10-9 1-8-6-12-15-9-13-2-1 1 6 2 32 4 45v53l-1 26-2 9-9 5-14 2-1 1h-33l-18-2-19-4-1-1-1-14-1-82-1-7 21 9v2l10 5-1-5-4-2-2-3 9 1 2 2 4 1 2-4 3-1 22 1v-83l1-38 3-5z" fill="#1E242B"/>
<path transform="translate(523,1098)" d="m0 0h3v2h2l3 15 15 65 11 46 4 19 3 10v2h-5l-3-9-3-13-8-33-2-7-2-11-2-7h-72l-1 83-1 1h-5v-38l-24-1-34-2-20-1-4 19-5 19h-5l1-6 3-14 6-25 8-33 7-31 10-43 1-6z" fill="#87A1EA"/>
<path transform="translate(1135,417)" d="m0 0 5 1v19l34 1 1 3v72l-4 2-65 1-1 3 3 28 4 62 2 15h2l3 8-1 17-3 10h-5l-1-1v-10l-6 2-11 8-13 4h-15l1-5 8-11 5-5 11-12 3-6v-2l-3-1-1-15-8-52-3-23-1-12-4-2-10-1-4-3v-5h-19l-15-4v-1l11 1 10 2 14 1v-55l1-12 1-1h48l25 1v-16z" fill="#BF475C"/>
<path transform="translate(837,257)" d="m0 0h6l2 12 4 13 7 16 6 11 3 5v2h3l1-7 3-7 5-22 2-22 18 4 7 5 6 10 4 13 3 26 3 44 1 11-6 11-1 6-4 2-2 4-8 3-14 1h-42l-16-1-8-2-5-2v-11l2-19v-32l-5-14-6-14-3-10v-14l5-10 7-6 12-4z" fill="#A0364E"/>
<path transform="translate(1146,336)" d="m0 0 7 6 9 10 13 18 9 15 9 20 4 11 4 16 2 18v27l-5 25-9 25-7 13-10 16-12 14-10 11-11 9-12 10-14 9h-2l-4-62-3-29 2-3 65-1 3-1v-75h-34l-1-1v-19l-4-1v20l-1 1h-18l-1-1v-6h-7v-11l-5-5v-6l6-9 4-2 16 5 6 1 1-9 7-26 2-10z" fill="#88A2EB"/>
<path transform="translate(285,1100)" d="m0 0h2l-2 5-2 23-5 78v16l4 4 9 6 1 1v6l7 2 10 10v3l-8 2h-12l-10-4-14-7v10l-5 1-3-3-4-13-1-6 1-7-7-1-17-6-10-5-5-1 3 10 9 10 7 8 5 6 3 4v4h-15l-8-2-14-8-3-3-3-1v9l-1 2h-5l-2-6-1-4v-17l3-7h2v-8l2-10-2-3h2l4-65 2-27 1-4-2-1 12 2 18 2h33l7-2 8-1z" fill="#D7AE86"/>
<path transform="translate(402,456)" d="m0 0h209l-1 174h-209v-19h-46v-1h46v-138zm142 15-88 1-36 1-1 23v115l99 1h75l1-3v-105l-1-32-32-1z" fill="#986753"/>
<path transform="translate(427,542)" d="m0 0h165l1 16-1 53h-125l-47-1v-67z" fill="#5E4038"/>
<path transform="translate(221,341)" d="m0 0h25l15 3 13 5 8 6 6 7 14 27 12 22 2 5 54 4 2 1v20l-2 1h-60l-7-1-23-1v25h-15l-1-54-29-1h-58l2-35 3-15 8-9 14-7z" fill="#3D4D59"/>
<path transform="translate(174,192)" d="m0 0h12l8 6 9 1 5 5v13l5-1h17l16 7 10 1 12-1 10 4 6 7 3 7v8l-1 9v7l-2 10-6 5-5 2-2-19-4-7-1-3h-2l-1 3-7 6-1 3h-2l-2 6-1 2-1 9-5-1h-7l-3 5 1 9 2 2 6 2 1 1v14l-4 10-5 7-6 1-4-2-8-2-6-4-8-4-4-5-2-5-7-2-4-6-2-9-5-4-2-5 1-5v-8l-1-1v-7l5-8v-1h-11l-10-3-6-11-3-4v-6l1-6-5-8 1-7 6-5 10-3h2l2-5z" fill="#623B2E"/>
<path transform="translate(754,556)" d="m0 0h38l1 21 26-1 1 1 2 49 4 1 2 2-13 8-8 8-1 2 16-3 15-8 9-7h2v15l-4 15-7 1v-9h-5l-1 3-7 4-11 3h-19l1-7-2 1h-80l-2-1v-76l2-1h41z" fill="#744D3D"/>
<path transform="translate(191,460)" d="m0 0h31l3 1-1 11-3 2h-4l-1 7 48-1 1-15h27l22 1 21 3 12 4 10 6 7 9 3 9v29l-3 3-14 2h-35l-1-12-109-1-2-1-16 2h-7v-38h21l-1-6-9-2-3-2v-9z" fill="#1F242A"/>
<path transform="translate(816,112)" d="m0 0h14l9 5 4 3 8 4 5 1 3-1h9l22 7 9 6 7 7 8 14 2 6v10l-10 20-2 10-2 11h-1v-15l-2-19-1-1h-26l-3-1v-2h-8v2l-8 2-1 2 5 2-1 2-15-1 1-2h2v-2l-11 3-7 3-2 10-4-2-3-2-4 1-5 5v9l3 6 1 3 5 2 8 1 3 5 1 5h2l2 6-5 5-4 5-9 4-15-1-10-6-8-8-4-6v-3l9 2h5l4-7 1-16-6-33-1-17v-7l4-16 5-9 5-5 5-4z" fill="#BA7D40"/>
<path transform="translate(1084,258)" d="m0 0 9 2 17 6 5 5 6 10 9 20 10 23 6 12v23l-6 26-5 19-9-1-14-4-7 7h-32l-1-1v-5l-2-1h2v-119l5-5 4-6z" fill="#3E4D5A"/>
<path transform="translate(1060,941)" d="m0 0 18 4 10 4 6 12 6 30 4 27 1 16-2 3-5 1h-129l3-3 19-10 1-2 5-49 3-13 5-10 5-4 13-4h6l2 21 5 19 3 10h2l2-5 8-16 6-14z" fill="#C1465C"/>
<path transform="translate(1116,101)" d="m0 0h8l6 3 4 5v2l10 2 6 5 1 2v10l-2 2v6l1 2v8l-5 6-6 4-3 5-4 3-11 1 4 6v7l-3 7v10l-3 9-5 1 1-6-4-2-1-1h-8l-3 3-3-1-1-8-3-3v-2l-5-2-2-6-4-2-8-1-9-3-3-2-2-5-5-4 2 9h-5v-2h-3l-2-5-2-3v-3l-7 4-4 6-3 5h-2l-1 5-2 18-5-3-4-7-2-10-1-1 1-26 5-9 8-7 10-4h8l12 1 17-4 9-1 5-5 4-3 3-5 5-4 7-1 6-5z" fill="#623B2F"/>
<path transform="translate(339,456)" d="m0 0h63v150l-1 4-47 1v-30l2-42-14-1v-1l14-1 1-5h-7v-1l16-2v-31l-4-11-6-7-14-7-12-3-11-2-2-1-18-2-9-4v-2l-2-1z" fill="#764E3D"/>
<path transform="translate(184,714)" d="m0 0h7l6 3 4 3 9 3 6 8 6 4 2 3 11 1 7 2 11 1 15-1 10 4 5 4 6 9 1 4v24l-2 2-1 11-4 5-4 1-1-1-1-14-4-10-9-10h-2l-2 5-5 8h-5l-1-4 2-5-5 4-3 4h-2v2l-7 2-11 1-9 12-2 2-1 7-13-1-5 2-1 8-4-2-3-6v-13l-3-7 1-6 2-6h-9l-8-9-8-6-3-6 2-7v-5l-2-4v-7l4-6 6-3 7-2 5-6z" fill="#613A2E"/>
<path transform="translate(218,866)" d="m0 0h4l4 12 8 9v98l-10-3-12-3-11-2-6 8-6 4-4 2-12-12-7-8-9-12-4-9 1-10 11-22 12-19 10-15 8-9 10-5z" fill="#3E4E5A"/>
<path transform="translate(1073,812)" d="m0 0 11 1 6 3 7 6 6 11 3 17v14l-5 29v17l3 6 7 2v-2l5-1-1 6-7 8-7 5-5 2h-13l-6-3-5-5-3-4 1-5 3-5 3-6 9-1 4-4 1-3v-12l-2-2-7 1-5 1-2-7-5-3-13-6-19-2v4l-13-2h-10l-4 1-1 2-1 9h-4l-1-7-5-2-2-5v-14l4-10 9-10 8-6 11-5 10-2h12l3-3 11-4 5-3z" fill="#BB7D40"/>
<path transform="translate(328,531)" d="m0 0h29l-1 5-3 2 3 1v21l-2 51-1 8v9l11 10 14 10 8 7 3 4-9 2h-19l-17-7-5-3 1 10h-8l-4-12-2-11 2-9 1-1v-17l-29 1-2 9 1 5 9 11 6 7-1 2-8-1-16-9-9-7-3-3v-2l-5 3-2 7h-23l-2-1v-22l32-1 1-25 1-3 1-27 2-7h25l-1 23h-2l-1 15-3 24h28z" fill="#D7AE86"/>
<path transform="translate(261,867)" d="m0 0 7 1 12 3 6 4 6 7 15 28 14 24v2l10-3 25-11 5-1 2 10h2v3l3 1-1 4-23 12-20 10-9 1-8-6-12-15-9-13-2-1 1 6 2 32 3 34v7l-11 1h-23l-1-3-23-1-1 4-10 1-1 2v-3l-4-2-2-3 9 1 2 2 4 1 2-4 3-1 22 1v-83l1-38 3-5z" fill="#3E4D5A"/>
<path transform="translate(861,177)" d="m0 0h8v2h29l2 2 2 19v12l2-15 1-3h2l1 10-3 10-6 15-3 6-5 5-3 1v2l-8 4-11 3 1 3 9 5v12l-2 13-4 19-4 10-1 4h-3l-10-18-5-11-4-10-3-12v-8l4-3v-7l-12-8-3-3-1-5h-2l-4-9-10-2-5-5-3-6v-9l4-5 3-2 5 1 5 4v-8l3-4 12-4h5v2l-2 1 14 1-4-3 1-3 8-1z" fill="#FCDEC2"/>
<path transform="translate(187,409)" d="m0 0h48l29 1 1 1v69l-1 1h-48l1-7 7-2 1-11h-34l-2 1v9l11 4 1 6h-30l-4-4v-19l1-18 2-29z" fill="#C1465B"/>
<path transform="translate(1049,400)" d="m0 0h23l1 5h32l-1 10 5 5v7l-1 4h7l1 6 18 1v1h-73l-1 12-1 55h-14l-23-4-7-4-1-3-1-21v-72l15 2 21 1z" fill="#1F252B"/>
<path transform="translate(1041,158)" d="m0 0h3l3 6 1 5h3v2h5l-2-9 4 2 3 3 1 4 9 3 12 3 4 4 1 4 4 2 4 5v8h4l2-3h8l5 4v5l3 1-4 2-2 6-3 4-4 2h-8l-2 9-6 9-8 4-7 3-1 9 3 2-1 4-7 6-9 2-5-3-3-9h2v-2h2v-5l-2-1-1-2-18-8-5-5-4-13-1-11v-14l2-18 2-5h2l1-4 4-5 5-5z" fill="#D6AD85"/>
<path transform="translate(539,774)" d="m0 0h46v22l-4 2h-229v-23z" fill="#1F262D"/>
<path transform="translate(262,769)" d="m0 0 4 2 8 9 4 10 1 14 1 2-1 26-4 8-9 8-16 8 1 8 1 5-5 6-6 1-7-3-4-4v-8l2-5v-2l-6-2-9-6-5-6-4-10-4-1-2 1-5-5-3-2-1-4-1-1v-9l6-3h6l7 2v-7l6-7 6-8 18-2v-2l8-8h2l-1 8h5l5-8z" fill="#D6AD85"/>
<path transform="translate(300,611)" d="m0 0h29l1 8v9l-2 3-1 9 4 16 1 5h8l-1-10 5 2 17 7h19l7-2-5-6-4-4 13 1 12 4 9 2v2h2l-2 4-11 5-15 4-9 2-40 4-45 2h-18l-50-2-20-2-25-5-21-6-4-3 1-5 7-3 17-4h6l3 10 5 5 8 1 7-4 2-5v-7h12l1 1 1 8 4 5 2 1h10l5-4 3-11h12l2 10 4 5 9 1 6-4 2-3 2-7 11 7 11 4 20 1-6-9-11-13-11-12-2-3 1-9z" fill="#D9E1E7"/>
<path transform="translate(1090,953)" d="m0 0h29l5 5v88h-87l-76-1h-102l-15 1h-36v-9l44-1 1-9h65l1 9 42 1 1 2 7-1 129-1 5-1 1-5-2-19-4-26-5-25-3-6z" fill="#222830"/>
<path transform="translate(837,257)" d="m0 0h6l2 12 4 13 7 16 6 11 3 5v2h3l1-7 3-7 5-22 2-22 18 4 3 3-1 5 2 7h-2l4 13 2 8v20l-1 6v38l-9-2-28-11-12-6-6-8-6-11-6-12-9-20-7-15-5-9-3-1-5 4 2-4 7-5 15-4z" fill="#C1475C"/>
<path transform="translate(380,283)" d="m0 0h169l1 131-1 1-51 1-1 16 4 1h-25l-44-1v-17h-52zm59 5-52 1v118l37 1h120v-120z" fill="#40505C"/>
<path transform="translate(1135,417)" d="m0 0 5 1v19l1 1 27 1-2 1v38l-1 6-4 1h-34l-3 3h-13l-3-2-13-1-27-1-2-3v-40l2-1-7-1v-1h48l25 1v-16z" fill="#A1344D"/>
<path transform="translate(466,1099)" d="m0 0h56l5 19 8 37 3 11v6h-71l-1-1z" fill="#87A1EA"/>
<path transform="translate(225,547)" d="m0 0h18l-1 63h2l1 2v21h25l2-7 5-2 6 7 18 11 7 3 5 1v-2h2l12 16v2h-20l-12-5-8-5-2-1-2 8-6 5-2 1-9-1-5-6-1-2v-8h-12l-1 8-3 5-4 3h-10l-7-7-1-8-12-1 1 7-3 6-7 4-8-1-5-4-2-4v-7l3-5 6-5 3-5 25-1v-25l1-7z" fill="#3D4C59"/>
<path transform="translate(1021,504)" d="m0 0 27 5 2 2v89l-1 26v3h2l1 3v12l-5 15-4 3-4-1 1-9-8 2-18 8h-14l-7-3 2-4 7-6h2v-4l-2-1 7-2 3-3 7-4 5-7v-59l-4-64z" fill="#D7AF88"/>
<path transform="translate(1040,869)" d="m0 0 16 2 13 6 5 3 2 2v6l7-3h5l3 3v12l-3 5-3 3h-9l-3 9-3 4-1 3-7 4-6 7-7 3-13 1-2-2v-3l-11-3-8-6-6-9-1-7v-5l-4-2v-12-3l1-3h3v-9l2-3 4-1h10l10 2 3 1v-4z" fill="#FBDCBF"/>
<path transform="translate(201,1101)" d="m0 0 12 2 18 2 1 1-1 16-6 37-8 44-1 11h-2l3 10 9 10 7 8 5 6 3 4v4h-15l-8-2-14-8-3-3-3-1v9l-1 2h-5l-2-6-1-4v-17l3-7h2v-8l2-10-2-3h2l4-65 2-27 1-4z" fill="#D7AE86"/>
<path transform="translate(1077,518)" d="m0 0 23 2 5-1 3 28 4 62 2 15h2l3 8-1 17-3 10h-5l-1-1v-10l-6 2-11 8-13 4h-15l1-5 8-11 5-5 11-12 3-6v-2l-3-1-1-15-8-52-3-23z" fill="#D7AF87"/>
<path transform="translate(713,577)" d="m0 0h39v1l-36 1 3 3 1 4v38l9 2 12 3 1 1 8 1 2-1 9 1 1-3 20-2h10v2h3v-2l4-1 21-1 1 5-5 2-5-1-1 2-4 2-1 1 2 1h6 3l-9 9-1 2 16-3 15-8 9-7h2v15l-4 15-7 1v-9h-5l-1 3-7 4-11 3h-19l1-7-2 1h-80l-2-1v-76z" fill="#9A6A56"/>
<path transform="translate(1051,507)" d="m0 0h7l2 6 2 1 13 2 2 2 3 26 4 29 5 32 1 15-1 2-6 1v2l-13 4-15 5-4-2v-3h-2l-1-3 1-26v-86z" fill="#88A2EB"/>
<path transform="translate(232,1106)" d="m0 0h23v118l-2 3-7-1-17-6-13-6v-11l12-68z" fill="#88A2EC"/>
<path transform="translate(816,112)" d="m0 0h14l9 5 4 3 8 4-1 4-5 3-18 5h-4l-2 4-4 5-6 10-4 13-2 14v16h2l1 11 3 6 1 3 5 2 8 1 3 5 1 5h2l2 6-5 5-4 5-9 4-15-1-10-6-8-8-4-6v-3l9 2h5l4-7 1-16-6-33-1-17v-7l4-16 5-9 5-5 5-4z" fill="#A46546"/>
<path transform="translate(392,1176)" d="m0 0h69v84l4 1h-5v-38l-24-1-34-2-20-1 2-13 5-20 2-9z" fill="#88A2EA"/>
<path transform="translate(859,443)" d="m0 0 4 1 1 5 6 118 2 56 2 6 5 3v2l5 2 9 5 10 5h12l5 3 7 9v2l-2 1h-16l-12-3-14-7 1 9-7-1-3-7-2-10v-12l-13-2-9-4v-22l3-56 4-84z" fill="#88A2EC"/>
<path transform="translate(254,860)" d="m0 0 7 1-1 18-2 2-1 38-1 83h-20l-1-1-1-11-11-4v-2l-5-1-3-3 9 1 10 4-1-98-8-9-3-9v-3l-3-1 5 1 1 3h2l-1-3-1-1-1-2 3-2h3l1 8 1 3 9 3 6-1 4-5-1-8z" fill="#FBFBFC"/>
<path transform="translate(515,856)" d="m0 0 12 2 12 6 5 4 7 10 4 12v10l-4 13-7 10-8 6-9 4-3 1h-18l-9-4-8-6-6-6v-3l9-6 11-6 8-6 3-1z" fill="#A0364D"/>
<path transform="translate(328,531)" d="m0 0h29l-1 5-3 2v1h-13l-4-2-4-1-2-1-1 76-29 1-2 9 1 5 9 11 6 7-1 2-8-1-16-9-9-7-3-3v-2l-5 3-2 7h-23l-2-1v-22l32-1 1-25 1-3 1-27 2-7h25l-1 23h-2l-1 15-3 24h28z" fill="#C49062"/>
<path transform="translate(523,1098)" d="m0 0h3v2h2l3 15 15 65 11 46 4 19 3 10v2h-5l-3-9-3-13-8-33-2-7-2-11-2-7h-72l-1 83h-5v-84l-69 1-4 18-3 11-5 22-6 25-1 4h-5l1-6 3-14 6-25 8-33 7-31 10-43 1-6h6l-4 19-7 30-5 21v2h67l-1-72h6l1 72 71 1-7-32-8-33-1-8z" fill="#262E35"/>
<path transform="translate(387,357)" d="m0 0 1 3 4 2 9 10 3 2v2l3 1v2h2v2l4 1 14 8 14 5 14 3h31l14-2 13-5 11-6 15-10h2l1-2 1 2 1 33h-120l-37-1z" fill="#C0C7D0"/>
<path transform="translate(182,545)" d="m0 0 41 1 2 1v54l-2 10-43-1-1-3v-61z" fill="#764E3C"/>
<path transform="translate(467,1176)" d="m0 0h72l3 8 1 3v8l-13 8-16 8-15 6-19 5-12 1-1 37h-1v-83z" fill="#87A0E7"/>
<path transform="translate(146,439)" d="m0 0 22 1 1 1-1 24v12l3 3 9 1v38l3 1-11 1v22l7 2 1 2v63h42v1h-42v19h-17v-155l1-19h-19v-16z" fill="#9C6F61"/>
<path transform="translate(1073,812)" d="m0 0 11 1 6 3 7 6 6 11 3 17v14l-5 29v17l3 6 7 2v-2l5-1-1 6-7 8-7 5-5 2h-13l-6-3-5-5-3-4 1-5 3-5 3-6 9-1 4-4 1-3 1-14 3-1-3-26-6-14-9-8-15-6-11-4-6-1v-2l6-1 3-3 11-4 5-3z" fill="#A66545"/>
<path transform="translate(607,457)" d="m0 0h3v173h-1v-20l-3-1 1-14 1-3-1-13v-14l-1-1v-8l-1-1-1 17v22l1 12-1 13-4 5h-7l-3-2-7-1-5-1-9-1-11-1-3-3 7-1h12l4-2h15v-141l-2-1 4-8 3 1 6-2h2z" fill="#9C6D5F"/>
<path transform="translate(1116,101)" d="m0 0h8l6 3 4 5v2l10 2 6 5 1 2v10l-2 2v6l1 2v8l-5 6-6 4-3 5-4 3-7 1-5-2-1-2v-5l-1-3-4-4v-2h-2l-2-4-3-1-2-5-4-2-7-6-1-2-9-1 1-6 7-5 3-5 5-4 7-1 6-5z" fill="#552F26"/>
<path transform="translate(820,336)" d="m0 0 3 3 9 13 2 4 4 2 11 7 15 6 9 4 12 4 10 4 12 6-1 6-6 2-14 1h-42l-16-1-8-2-5-2v-11l2-19 1-2z" fill="#C0455B"/>
<path transform="translate(174,192)" d="m0 0h12l8 6 9 1 5 5v11l-2 1-1 4-4 1-2 4-6 10-7 14-2 5h-13l-10-3-6-11-3-4v-6l1-6-5-8 1-7 6-5 10-3h2l2-5z" fill="#552F26"/>
<path transform="translate(184,714)" d="m0 0h7l6 3 4 3 9 3 6 8 6 4 2 4-9 2-3 3h-2l-2 4-5 5h-2v2l-4 3h-2l-2 5-3 3-2 10-5 1h-7l-8-9-8-6-3-6 2-7v-5l-2-4v-7l4-6 6-3 7-2 5-6z" fill="#542E26"/>
<path transform="translate(248,546)" d="m0 0h25l8 1-1 35-1 3-1 25-1 1-33 1v-2h-2v-56l1-7z" fill="#754D3D"/>
<path transform="translate(1090,953)" d="m0 0h29l5 5v88l-21-1-2-2 2-2 1-3h-6v-1l5-1 1-5-2-19-4-26-5-25-3-6z" fill="#3E4C58"/>
<path transform="translate(264,253)" d="m0 0h2l5 7 2 11 1 10 1 2 1 5 2 4-4 7-1 19-4 7-8 5-7 1h-11v4h-15l-1-4h8l2-4 5-9 1-4v-14l-7-3-3-5v-6l4-6h7l5 2v-9l4-8h2l1-4 7-6z" fill="#D6AD85"/>
<path transform="translate(386,289)" d="m0 0h1v118h37v1l21 2 51 1 4 2 49 1v1l-51 1-1 16 4 1h-25l-44-1v-17h-46l-3-1 1-120h2l-1-4z" fill="#717A7C"/>
<path transform="translate(1072,945)" d="m0 0 9 1 7 3 6 12 6 30 4 27 1 16-2 3-5 1h-45v-1h12v-2h2v-3l9-6 3-6 1-6v-8l-6-45 1-5-1-6 1-3z" fill="#A1344D"/>
<path transform="translate(191,460)" d="m0 0h31l3 1-1 11-3 2h-4l-1 7h35v1h-36v35h93v1h-103l-2-1-16 2h-7v-38h21l-1-6-9-2-3-2v-9z" fill="#9D364C"/>
<path transform="translate(314,519)" d="m0 0h1v12h13v79h-28v-10l4-29h2v-14l1-2 1-9 3-6z" fill="#764E3D"/>
<path transform="translate(848,247)" d="m0 0 10 2 1 1 9 2 11 6v12l-2 13-4 19-4 10-1 4h-3l-10-18-5-11-4-10-3-12v-8l4-3z" fill="#FADCBF"/>
<path transform="translate(198,635)" d="m0 0 4 1-2 1 4 3-1 2 5 2 3 1 14 1v-2l7-3h8l5 3 1 1h17l4-4-3-2-1-4h6l2 4h-2v2l6-1 6 4 3 3v10l-5 6-4 2-9-1-5-6-1-2v-8h-12l-1 8-3 5-4 3h-10l-7-7-1-8-12-1 1 7-3 6-7 4-8-1-5-4-2-4v-7l3-5 6-5z" fill="#22272E"/>
<path transform="translate(927,368)" d="m0 0h19l8 5 8 13 1 4-2 3h-2l-1 4-4 5-9 6-4 2h-4v-2l-4-2-12-9-5-4-2-3v-8l6-11z" fill="#FCDFC4"/>
<path transform="translate(969,1038)" d="m0 0h135l-1 6 15 1v1h-81l-76-1h-102l-15 1h-36v-5l6 1h148l1-2z" fill="#462323"/>
<path transform="translate(1209,1139)" d="m0 0h1v120h-194l-7-1 2-1v-2l7 1h4l7-1v2l9-2 1 2 8-3 2 2 6-1h2l7 1 1-1h31l6-1h17l4-1 9 1 7-1 10 1 5-1 10 1h19l5 2 2-2 13-1 1-14 1-63v-10-2-6-3l2-5h2z" fill="#613A2E"/>
<path transform="translate(306,536)" d="m0 0h6l-1 7-2 3-1 9h-1v-7l-26 1v-2h-58l-44-1-7-2-1-1v-5l1-1z" fill="#A1354E"/>
<path transform="translate(759,1090)" d="m0 0h1l1 15v19l1 31 1 50 1 12v20l1 14 5 2 7 1 2 2h8l1-1 27-2 9 1 13-1 11 1h7l3 1 1-2 4 1h8l2 1 7-1h7v2l7-2 5 1 4-1 2 1 6-1h8l4 1 4-1 4 1 4-1 3 2 2-2 4 1 2 1 2-2 7 1 4-1 3 2 5-2 2 4-159 2-51-1z" fill="#613A2E"/>
<path transform="translate(370,903)" d="m0 0 4 1-1 7 7-2 14-3h7l6 4 3 4 49 1-1 3-51 1-6 8-8 7-9 3-11 1v-2h-4l-1 2-1-3-2-1v-3h-2l-2-4v-9l2-8h3l2-1z" fill="#D7AE86"/>
<path transform="translate(798,200)" d="m0 0 2 2 1 3h3l2-3 1 9 5 5v2l5 2 8 1 3 5 1 5h2l2 6-5 5-4 5-9 4-15-1-10-6-8-8-4-6v-3l9 2h7l3-6 1-5z" fill="#A46445"/>
<path transform="translate(146,439)" d="m0 0 22 1 1 1-1 24v12l3 3 9 1v38l3 1-11 1-1 15-6 1-1-2v-79h-19v-16z" fill="#9C6D5F"/>
<path transform="translate(548,285)" d="m0 0h1l1 129h-50l-5-2-50-1-35-2v-1h134l-1-3v-66l1-50 4 1z" fill="#44505B"/>
<path transform="translate(1054,935)" d="m0 0 3 4 5 1-2 1v8l-3 11-7 17-9 16h-2l-6-16-4-19v-15l-2-1 6-2 1-2 15-1z" fill="#FDDFC2"/>
<path transform="translate(889,141)" d="m0 0 6 3-1 12-4 7-6 3-7-1-7-6-3 6h-5l1-8-7 4-2 4h-3v2l-6-1-3-5-1-2-4 4-3 4-3 1h-7l-3-2 1-8 7-9 3-2 6-1 6 2 3 2 7-3 6 1 4 2 2-4 4 1 2 5 4-5 1-1h7l5 2z" fill="#C59162"/>
<path transform="translate(225,547)" d="m0 0h18l-1 64h-16l-1-1z" fill="#20242A"/>
<path transform="translate(1012,946)" d="m0 0 4 1-5 3-2 4-1 9-3 18-3 6v11l1 7 3-1 1 33h19v1h-57l3-3 19-10 1-2 5-49 3-13 5-10 5-4z" fill="#9E394D"/>
<path transform="translate(300,611)" d="m0 0h29l1 8v9l-2 3-1 9 4 16 2 5 2 2-6 1-1-4h-2l-9-12-11-12-9-11 1-9z" fill="#FCFBFA"/>
<path transform="translate(481,868)" d="m0 0 4 1 11 11 7 8 6 7-4 4-9 5-8 5-10 6h-2l-4-10-1-5v-10l4-13z" fill="#BA7D43"/>
<path transform="translate(328,629)" d="m0 0 4 1 22 12 11 4 9-1 11 9 4 5-9 2h-19l-17-7-5-3 1 10h-8l-4-12-2-11z" fill="#A13B4F"/>
<path transform="translate(1112,398)" d="m0 0 17 5 6 1v33l-1 1h-18l-1-1v-6h-7v-11l-5-5v-6l6-9z" fill="#D7AE87"/>
<path transform="translate(201,976)" d="m0 0 16 3 1 3 5 2v2l6 1 6 3 1 12-5 1-2 3-5-1-4-2h-5l5 4 1 5-4-1-6-4v-2l-10-3-12-6-1-7 5-4h2l2-4z" fill="#D7AF88"/>
<path transform="translate(1113,624)" d="m0 0h3l3 8-1 17-3 10h-5l-1-1v-10l-6 2-11 8-13 4h-15l1-5 8-11 5 1 13-5 11-7h2v-2l8-7z" fill="#A33A50"/>
<path transform="translate(1047,629)" d="m0 0h4l1 3v12l-5 15-4 3-4-1 1-9-8 2-18 8h-14l-7-3 2-4 7-6h2l2-4 5 1h7l18-8 9-6z" fill="#A33E51"/>
<path transform="translate(254,1224)" d="m0 0 4 2 10 7 14 6 10 1 2-1 6 3 9 9v3l-8 2h-12l-10-4-14-7v10l-5 1-3-3-4-13-1-6z" fill="#A23C50"/>
<path transform="translate(191,1220)" d="m0 0 4 2 9 8 8 5 6 2v2l11 3v-2l4 2 5 6 3 4v4h-15l-8-2-14-8-3-3-3-1v9l-1 2h-5l-2-6-1-4v-17z" fill="#A33B4F"/>
<path transform="translate(275,624)" d="m0 0h2l6 7 18 11 7 3 5 1v-2h2l12 16v2h-20l-12-5-8-5-3-1-2-5-10-8-2-5 2-7z" fill="#A1384F"/>
<path transform="translate(408,614)" d="m0 0 6 3h13l13 4 5 1 1 3 13 1h8l10 1 6 1h86l6-2h7l1 1h14l3 1v2h-199v-14l2 3z" fill="#9D6E60"/>
<path transform="translate(871,629)" d="m0 0 4 1 4 2v2l5 2 9 5 10 5h12l5 3 7 9v2l-2 1h-16l-12-3-14-7 1 9-7-1-3-7-2-10z" fill="#292C32"/>
<path transform="translate(846,629)" d="m0 0h2v15l-4 15-7 1v-9h-5l-1 3-7 4-11 3h-19l2-6 4-6 2-1 11-1 9-3 15-8z" fill="#26292F"/>
<path transform="translate(180,481)" d="m0 0h14l6 1v35l-1 1-19 1z" fill="#5C3C34"/>
<path transform="translate(853,1027)" d="m0 0h65l1 10-2 1-23 1h-22l-19-1-1-2z" fill="#3D4D5A"/>
<path transform="translate(847,275)" d="m0 0 30 1v7l-4 19-4 10-1 4h-3l-10-18-5-11-3-7z" fill="#FDFCFA"/>
<path transform="translate(907,423)" d="m0 0h12l5 4 2 12-1 14-3 10-1 1h-14z" fill="#F8DDC3"/>
<path transform="translate(271,743)" d="m0 0 5 1 7 5 6 9 1 4v24l-2 2-1 11-4 5-4 1-1-1-1-14-4-10-5-6 1-5 2-2 11-1v-8l-3-1-2-4-3-2v-2h-2l-2-4z" fill="#573229"/>
<path transform="translate(245,611)" d="m0 0h31l1 3-2 9-3 4-2 7h-23l-2-1z" fill="#F9F8F7"/>
<path transform="translate(256,224)" d="m0 0h4l-1 5-4 2 3 1 3 5 3 3-1 3-6 1-7-3-1 3h-2l2 1-1 4h-4v-2l-6-1v-2l-6 1-1 5-6-2-3-6-7 1-1-2-4-1 1-7 4-1 2 2v-2h2l1-3 4 1h4l1 1 4-1 3-1 6 4 1 3 2 1 1-2v2h2v-2l7-2-3-1 1-2-4-1 2-1v-2l5-1z" fill="#764E3C"/>
<path transform="translate(377,421)" d="m0 0h11l12 4 11 6 20 1v1h-17l1 6h-7l-13-4-1 4-7 2h-15v-18z" fill="#D4AB84"/>
<path transform="translate(200,914)" d="m0 0 2 4v18l-5 31-3-1-11-15-3-4 1-5 12-18z" fill="#88A2EC"/>
<path transform="translate(509,850)" d="m0 0h2l1 2v36h-2v-2h-2l-7-8-15-15 1-4 13-7z" fill="#767C7C"/>
<path transform="translate(1055,956)" d="m0 0h2l-1 7-8 18-7 12h-2l-6-16-2-8v-10z" fill="#FDFCFB"/>
<path transform="translate(963,1040)" d="m0 0h3l-1 2zm-155 1 6 1h151l3 1h123l27 2v1h-81l-76-1h-102l-15 1h-36z" fill="#58342C"/>
<path transform="translate(198,635)" d="m0 0 4 1-2 1 4 3-1 2 5 2 2 2 13 1-1 2-12-1 1 7-3 6-7 4-8-1-5-4-2-4v-7l3-5 6-5z" fill="#242B32"/>
<path transform="translate(280,441)" d="m0 0h9l3 3 5-2h5v2l5 1 2 4-7 3-9 2h-4v2h50v1l-49 1v2l6 1 3 2 18 2 2 2-27-1-12-1-1-4z" fill="#542E25"/>
<path transform="translate(435,815)" d="m0 0h62l1 1-1 7h-62l-1-7z" fill="#1E252C"/>
<path transform="translate(901,419)" d="m0 0h5l1 1v50l-1 12-2 46-2-4-1-1 1-14 1-7v-29l-3-10v-4l-2-1v-18l-1-3 1-5 1-3 1-7z" fill="#563127"/>
<path transform="translate(231,641)" d="m0 0h9l5 3 5 2-2 1-1 9-3 5-4 3h-10l-7-7v-10h-13l1-2 14 1v-2z" fill="#21272E"/>
<path transform="translate(436,999)" d="m0 0h8v59h-8z" fill="#A23C50"/>
<path transform="translate(1057,139)" d="m0 0 6 1 4 3 13 2v2l7-1 5 1 2 2 3 2 7 1 1 3-1 5-8-1-3-3-3-1v2l-7 3-6-1-4-6h-7l-6-4-1-2h-5l-1-3 4-2z" fill="#754D3C"/>
<path transform="translate(191,460)" d="m0 0h31l3 1-1 11-10 2-22-2-4-3v-7z" fill="#24252A"/>
<path transform="translate(771,560)" d="m0 0h16v16l-1 1h-26v-15l2-1z" fill="#87A0E6"/>
<path transform="translate(280,406)" d="m0 0 4 2 10 20 6 8 2 4h-22l-1-1-1-10v-16z" fill="#F7F6F6"/>
<path transform="translate(212,1236)" d="m0 0 6 1v2l11 3v-2l4 2 5 6 3 4v4h-15l-8-2-11-6v-3l3-5h2z" fill="#C14A5C"/>
<path transform="translate(370,903)" d="m0 0 4 1v7l5 2v12l-2 4-1 6-7 1-1 2-1-3-2-1v-3h-2l-2-4v-9l2-8h3l2-1z" fill="#D4AB84"/>
<path transform="translate(915,391)" d="m0 0 7 6 15 11v2l-6-1-9-4v18l-3 1-10-1-1-2 1-12 4-6-1-6 1-3h2z" fill="#A2354E"/>
<path transform="translate(1104,320)" d="m0 0 3 1 10 19 2 4-1 11-3 22-2 2-7-39z" fill="#88A2EC"/>
<path transform="translate(873,626)" d="m0 0 24 3 5 5 11 7 2 2-1 4h-11l-14-7-10-6v-2l-5-2-2-3z" fill="#F5D9BE"/>
<path transform="translate(146,439)" d="m0 0 22 1 1 1-1 15h-23v-16z" fill="#472829"/>
<path transform="translate(431,432)" d="m0 0h45l59 1v7l-23-1 1-2 12-1-18 1h-11l-1-1-62-1h-14l-3 2v-4z" fill="#1E242B"/>
<path transform="translate(1008,1038)" d="m0 0h63l31 1-3 2h-21l-13 1h-50l-11-1-35 1 2-3z" fill="#252329"/>
<path transform="translate(847,624)" d="m0 0 1 4-5 4-8 6-16 8-5 1h-8l2-4 8-8 12-7 18-1z" fill="#F7D8BB"/>
<path transform="translate(812,219)" d="m0 0 13 2 3 5 1 5h2l2 6-5 5-4 5-9 4-15-1-10-6 2-1 6 2 3-1 12 4 7-2 5-6-1-5-9 2-1-4 1-4-3-6 2-3z" fill="#8E6344"/>
<path transform="translate(419,1013)" d="m0 0h8l1 45h-8l-1-2z" fill="#A03D50"/>
<path transform="translate(189,483)" d="m0 0h10v34h-8l-3-3v-21z" fill="#1E232A"/>
<path transform="translate(235,752)" d="m0 0h7l3 3 6 3v2l-9 1-5 1-4 2h-5-3l-17 3-6 3h-3l1-4h4v-3h2v-3l3-1 1 1 4-1 1-2 19-4z" fill="#764E3D"/>
<path transform="translate(492,283)" d="m0 0h57l-1 7h-2v6h-1l-1-7-1-1-90-1v-1h5v-2z" fill="#24272E"/>
<path transform="translate(254,860)" d="m0 0 7 1-1 5-1-3-3 1-1 15h-2v3l-4-1-1-3-12-1-1-2v5l5-1-1 3h-5v5l-7-6-4-8-1-7-3-1 5 1 1 3h2l-1-3-1-1-1-2 3-2h3l1 8 1 3 9 3 6-1 4-5-1-8z" fill="#DBE0E5"/>
<path transform="translate(281,249)" d="m0 0 2 4 2-1 1 13-2 10-6 5-5 2-2-19v-8l7-3 1 1z" fill="#552F27"/>
<path transform="translate(1006,645)" d="m0 0 5 1h7l5-1-2 3 5 1-3 1v2l-6 3h-2l1 3 2 2-4 2h-14l-7-3 2-4 7-6h2z" fill="#BF4A5C"/>
<path transform="translate(1041,158)" d="m0 0h3l3 6 1 5h3v2h5l-2-9 4 2 3 3 1 4 5 2-3 1v3l-7 2-1 1h-6l-10-8v-2l-4-1-1-5 5-5z" fill="#C49265"/>
<path transform="translate(464,1007)" d="m0 0h76v4h-76z" fill="#7B797C"/>
<path transform="translate(1087,644)" d="m0 0 4 2 1 4-4 5-6 3-1 3-2 1h-15l1-5 8-11 5 1z" fill="#C24D5E"/>
<path transform="translate(1047,844)" d="m0 0h3l2 3h11l3 6v4h2l1-6h2l1 8-1 1 3 1v-13h2l1 2v11l-2 3h-8l-3-1-1-5v-7h-4l-1 7-2-1 2-8-5 2-1 9-2-1v-10h-3l-1 6-3 5h-3l-3-15 4 1 2 4v5l2-7z" fill="#CEA075"/>
<path transform="translate(410,408)" d="m0 0h33l91 1-1 2-5-1-1 2-7 2h-20l-5-2-50-1-35-2z" fill="#40505C"/>
<path transform="translate(232,858)" d="m0 0 4 1 13 1 3 5-1 5-4 5-6 1-7-3-4-4v-8z" fill="#D8AF87"/>
<path transform="translate(403,1024)" d="m0 0h8v35h-7l-1-1-1-33z" fill="#9F3E50"/>
<path transform="translate(1096,825)" d="m0 0 4 2 4 10 2 13v14l-2 3-1-9-7-1-3-4-1-8 3-4 2-1v-8l-1-4z" fill="#8C6143"/>
<path transform="translate(1053,249)" d="m0 0h3v5h9l6-2 2-2v5l3 2-1 4-7 6-9 2-5-3-3-9h2v-2h2v-5z" fill="#D8AF88"/>
<path transform="translate(328,531)" d="m0 0h29l-1 5-3 2v1h-13l-4-2-4-1-2-1-1 76h-28v-1h27z" fill="#B4835F"/>
<path transform="translate(818,592)" d="m0 0h1l1 8 1 1 1 25 4 1 2 2-10 6-5 2-9-1 4-5 6-2 4 2 2-4-1-2-22 1h-2v2h-3v-2l-7 1h-9v-2l6-2 36 1z" fill="#83593E"/>
<path transform="translate(164,456)" d="m0 0h4v21l2 4h-2l-1 20v21l1 5v3l2-9 2 2-1 13-6 1-1-2z" fill="#9A6752"/>
<path transform="translate(938,368)" d="m0 0h8l8 5 8 13 1 4-2 3-4-1-8-7-8-12-4-2z" fill="#D3AA83"/>
<path transform="translate(720,612)" d="m0 0 1 3v8h37l4-1 1 5 4 1h-5l-1 4-10-1-2 1-7-1-15-5-7-1-1-3v-9z" fill="#885E3F"/>
<path transform="translate(476,568)" d="m0 0h59l1 4-8 1h-50l-3-3z" fill="#4A2623"/>
<path transform="translate(285,1100)" d="m0 0h2l-3 9-1 1-11 2-9 1v2h-7l-1-2v-7l9-1 7-2 8-1z" fill="#CFA986"/>
<path transform="translate(963,1040)" d="m0 0h3l-1 2zm-1 2 6 1h123l27 2v1h-81l-76-1-14-1v-1z" fill="#5E4139"/>
<path transform="translate(857,444)" d="m0 0h2l-2 38-4 86-3 56h-1v-23l5-108 1-33z" fill="#55626A"/>
<path transform="translate(382,899)" d="m0 0h75l2 2-1 1-77 1z" fill="#6A6664"/>
<path transform="translate(755,557)" d="m0 0h37v19h-4l-1-16-25 2-2 1-1 13h-3l-1-5h2l-2-2z" fill="#44282A"/>
<path transform="translate(475,500)" d="m0 0h61v4h-60z" fill="#512C26"/>
<path transform="translate(382,867)" d="m0 0h77l-1 3h-76z" fill="#5A656C"/>
<path transform="translate(974,1254)" d="m0 0 4 2 5-2v2l8-2 2 2 6-2 2 2 6-1v2l9 1v1h-135v-1l90-1v-2z" fill="#6C4536"/>
<path transform="translate(201,1101)" d="m0 0 12 2 18 2 1 1v8l-29-4v-8z" fill="#CB9B6F"/>
<path transform="translate(253,1228)" d="m0 0h1v6h2v-2h2l4 4 3 4v2l5 1v2l2 1-3 1-4-2v10l-5 1-3-3-4-13-1-6z" fill="#BF4B5C"/>
<path transform="translate(382,883)" d="m0 0h76v3h-77z" fill="#615C5E"/>
<path transform="translate(386,1034)" d="m0 0h9v24l-2 1h-6l-1-1z" fill="#A04452"/>
<path transform="translate(1102,411)" d="m0 0 2 4 5 5v7l-1 4h7l1 6 18 1v1h-25l-7-2-1-8z" fill="#693C33"/>
<path transform="translate(280,456)" d="m0 0h59v1l-49 1v2l6 1 3 2 18 2 2 2-27-1-12-1-1-4z" fill="#5E3F37"/>
<path transform="translate(381,650)" d="m0 0 12 2 4 3 4 1h5l1 4-12 4-8 1h-6l-2-3 1-2 7-2z" fill="#F9F9F9"/>
<path transform="translate(845,121)" d="m0 0 6 3-1 4-5 3-18 5-4-2v-2l6-5h2l1-3 8-2 5 1z" fill="#C0475B"/>
<path transform="translate(821,133)" d="m0 0 2 3-2 4-4 5-6 10-4 13-1 5h-2v2h-2l-1-2v-8l3-7 9-17 2-1 1-3z" fill="#8B5D3F"/>
<path transform="translate(435,815)" d="m0 0h62v1h-49l-1 5 50 1v1h-62l-1-7z" fill="#4B5662"/>
<path transform="translate(171,543)" d="m0 0 8 2 1 2v44l-1 11-2-3-2-21-1-5 2-6 2-2v-16l-3 1h-3l-1-5-2-1z" fill="#996854"/>
<path transform="translate(514,1055)" d="m0 0h26v3h-76v-2z" fill="#50565E"/>
<path transform="translate(1022,843)" d="m0 0h5l9 5-1 4-4 4-1 4h-5v-2l-4-1-1-10z" fill="#C9976A"/>
<path transform="translate(403,459)" d="m0 0 4 4-1 4-2-1v2h2l4 10-1 5-2 9-1 2-3 3-1-3-1-22z" fill="#9C6D5F"/>
<path transform="translate(431,432)" d="m0 0h45l14 1-1 2h-70l-3 2v-4z" fill="#2E2E35"/>
<path transform="translate(876,627)" d="m0 0 16 1 6 2 8 7 2 3v3l2 1h-6l-11-8-13-6v-2z" fill="#D7AF88"/>
<path transform="translate(210,648)" d="m0 0h12l1 1 1 11-5 1-11 1 2-7z" fill="#F0F2F6"/>
<path transform="translate(493,612)" d="m0 0h46l14 1v4l-9-1-8 1h-7l-3-2h-8l-5-1-4 1-5-1-3 1-5-1-5 1-1-2z" fill="#9C6D5F"/>
<path transform="translate(814,393)" d="m0 0 6 1 8 2v5l-2 4-7 4h-5z" fill="#755243"/>
<path transform="translate(241,319)" d="m0 0 1 3 6 2 3 2v2l5 1v1l-13 1v4h-15l-1-4h8l2-4z" fill="#BB8962"/>
<path transform="translate(811,195)" d="m0 0h2l3 9 1 9 1 3 3 1-3 2-6-1-4-6-1-3v-9z" fill="#F7DDC4"/>
<path transform="translate(828,628)" d="m0 0h13l-5 4-6 5-9 4-3 1-7-1 5-6z" fill="#D4AA83"/>
<path transform="translate(188,785)" d="m0 0 5 1v9h-2v2h4v3h-5l-1 3-2 1 2 4-1 5-3-4v-13l-3-7 1-3z" fill="#64443B"/>
<path transform="translate(190,996)" d="m0 0 21 9-3 1-5-1-9 2-1 78h-1l-1-82z" fill="#5F656A"/>
<path transform="translate(242,832)" d="m0 0 15 1-1 6-4 3h-10l-5-5 1-4z" fill="#A23A4E"/>
<path transform="translate(1118,166)" d="m0 0h7l-4 1 4 6v7l-3 7v10l-1 5h-1l-1-10v-5l-4-6 3-13z" fill="#67493F"/>
<path transform="translate(473,1023)" d="m0 0h58l9 1v2h-76v-2z" fill="#3B4650"/>
<path transform="translate(605,501)" d="m0 0 2 4v12l1 3-1 6 1 7-1 5 1 5-3 3-2-10-1-20 1-13z" fill="#996854"/>
<path transform="translate(1113,475)" d="m0 0h11v11l-1 2h-10l-2-4v-7z" fill="#432625"/>
<path transform="translate(1052,250)" d="m0 0h3v5h-2v4l2 8-4-1v3h-5l1 5-2-1-1-3v-13l4-5z" fill="#DADEE1"/>
<path transform="translate(180,481)" d="m0 0h14v1h-6l-1 7-2-4v-2l-4-1 2 16-1 5-1 15 3-1v-12l1-14h2v13l1 13h11v1l-19 1z" fill="#7C5340"/>
<path transform="translate(464,1040)" d="m0 0h76v2l-74 1-2-1z" fill="#3E4D5A"/>
<path transform="translate(409,915)" d="m0 0h50l-1 3-48 1-2-2z" fill="#3D4D5A"/>
<path transform="translate(254,860)" d="m0 0 7 1-1 5-1-3-3 1-1 15h-2v3l-4-1-1-3-12-1-2-4 10 2 5-3 2-3-1-8z" fill="#D8E1E7"/>
<path transform="translate(339,651)" d="m0 0 5 2 17 7 15 2v1h-17l-11-1-8 1z" fill="#FBF8F5"/>
<path transform="translate(764,615)" d="m0 0h12v12l-9 1-3-1z" fill="#452524"/>
<path transform="translate(1048,637)" d="m0 0h3v11l-5 12-3 2-4-1 1-6 3-6-2-2 4-2 1-3h2z" fill="#A3384F"/>
<path transform="translate(372,911)" d="m0 0 7 2v12l-2 4-1 6-7 1-1 2-1-3-2-1 1-2h4l1-4h2l1-10 1-3-2-1z" fill="#A66444"/>
<path transform="translate(873,942)" d="m0 0h8l1 3-1 10-5 2-5-3v-10z" fill="#C1BEC1"/>
<path transform="translate(443,408)" d="m0 0h101v1l-5 1v2l-7 1h-11v-1l10-2 3-1h-91z" fill="#707A7C"/>
<path transform="translate(860,398)" d="m0 0h6v13l-1 13-2 2h-3l-1-5 1-10z" fill="#7A513D"/>
<path transform="translate(279,1105)" d="m0 0h5l-1 5-11 2-9 1v2h-7l-1-5 1-1 14-1 9-1z" fill="#A66747"/>
<path transform="translate(248,648)" d="m0 0h12v10l-2 1v-3l-5 1-2 2-6 1z" fill="#F8F9FA"/>
<path transform="translate(1074,848)" d="m0 0h2l1 2v11l-2 3h-8l-3-1-1-8h2l1-2v4h2l1-6h2l1 8-1 1 3 1z" fill="#C9986B"/>
<path transform="translate(1021,504)" d="m0 0 27 5 2 2v3l-26-4-2-1v-2h-2z" fill="#A4694E"/>
<path transform="translate(229,1240)" d="m0 0 4 2 5 6 3 4v4h-15l-6-1v-2h13v-3l-5-5 2-1z" fill="#A24653"/>
<path transform="translate(1135,417)" d="m0 0 5 1v13l-1 7h-5v-15z" fill="#63443D"/>
<path transform="translate(262,769)" d="m0 0 4 2 2 4v5l-6 3-1 1h-5l-1-2 5-8z" fill="#C18C61"/>
<path transform="translate(1132,431)" d="m0 0h2l1 6-1 1h-18l-1-5 4-1h11z" fill="#89A2EB"/>
<path transform="translate(1054,247)" d="m0 0h9l9 2-1 4-6 2h-7l-2-1v-5h-2z" fill="#BF8B60"/>
<path transform="translate(274,351)" d="m0 0 5 1 7 7 9 16 8 16-1 3-10-19-1-4-3-1v-3h-2l-4-7-6-7z" fill="#272E35"/>
<path transform="translate(963,1040)" d="m0 0h3l-1 2zm-1 2 6 1 69 1v1h-76l-14-1v-1z" fill="#5E4139"/>
<path transform="translate(821,627)" d="m0 0 7 1-5 4-5 3-5 2-9-1 4-5 6-2 4 2 1-2z" fill="#8A5F42"/>
<path transform="translate(856,178)" d="m0 0h5l-3 2-5 1-1 2 5 2-1 2-15-1 1-2h2v-2l-7 1v-2z" fill="#DBB38C"/>
<path transform="translate(1084,892)" d="m0 0h3v4h3v7l-5 5h-6v-4l4-2z" fill="#FAF4EE"/>
<path transform="translate(997,870)" d="m0 0 3 1 4-1 5 2-1 12h-4l-1-7-5-2z" fill="#916445"/>
<path transform="translate(760,563)" d="m0 0 3 1 3 6 6 5v2h-12z" fill="#F3F5F7"/>
<path transform="translate(1075,516)" d="m0 0h30l-1 5-18-1-10-2z" fill="#C18E63"/>
<path transform="translate(859,124)" d="m0 0h9l13 4v1h-30l-6 2 3-3 4-3z" fill="#9F644A"/>
<path transform="translate(813,195)" d="m0 0h2v2l3 1 3 7v10l-5-2-1-9-2-4z" fill="#A7795E"/>
<path transform="translate(1024,502)" d="m0 0 11 1 10 2 15 1 2 6 2 1 9 1 2 2-13-1-4-3v-5h-19l-15-4z" fill="#8D6253"/>
<path transform="translate(790,243)" d="m0 0 8 2 3-1 12 4h6l-1 2-9 1-9-1-10-6z" fill="#8B634A"/>
<path transform="translate(797,145)" d="m0 0h1v12l-3 5-3 1-1-5 2-10 1-2z" fill="#885E3F"/>
<path transform="translate(173,510)" d="m0 0 7 1v8l3 1-12 1-1-2 1-7z" fill="#9A6752"/>
<path transform="translate(195,810)" d="m0 0h7l5 4-1 9-3-1-6-7-2-2z" fill="#9D6347"/>
<path transform="translate(521,433)" d="m0 0h14v7l-23-1 1-2 18-1v-2h-10z" fill="#242B33"/>
<path transform="translate(1006,645)" d="m0 0h4v2h-2v4l-6 4v2l-5 4-4-2 2-4 7-6h2z" fill="#9F4350"/>
<path transform="translate(327,568)" d="m0 0h1v42h-5l2-1-1-3 2-6v-31z" fill="#5F3B31"/>
<path transform="translate(1076,176)" d="m0 0 7 1 4 4 1 5-4-2-4-1h-8l1-4h4z" fill="#C59368"/>
<path transform="translate(1043,158)" d="m0 0 2 3 3 4v4h3v2h5l-2-9 4 2 3 3-1 2-3-3 2 6v3l-9-3-5-2-2-6z" fill="#986449"/>
<path transform="translate(1047,844)" d="m0 0 3 1h-2l1 4h-2l-1 6-3 5h-3l-3-15 4 1 2 4v5l2-7z" fill="#C79466"/>
<path transform="translate(255,1241)" d="m0 0 2 1v2h2l3 3h2l1 8-5 1-3-3-2-7z" fill="#A63F53"/>
<path transform="translate(207,1108)" d="m0 0h18v2l7-1v5l-22-3-3-1z" fill="#A2664A"/>
<path transform="translate(197,647)" d="m0 0 4 1 1 3v6h-8l-2-4 3-5z" fill="#3A4955"/>
<path transform="translate(234,785)" d="m0 0h4v2l-7 1v2l3 1-1 3h-6l-2-1 2-4 2-1-5 1-6 7-2-1 7-9z" fill="#C08E64"/>
<path transform="translate(905,327)" d="m0 0 2 2v32h-2l-1-15v-10z" fill="#5E372B"/>
<path transform="translate(1116,101)" d="m0 0h8l-1 6 1 5-5 2-1-5h-3v-5l-2-2z" fill="#654033"/>
<path transform="translate(971,1039)" d="m0 0h34l-1 2-35 1z" fill="#1E242B"/>
<path transform="translate(1073,646)" d="m0 0 8 1v2l-4 3-5 1-2 5-4 3h-2l2-6z" fill="#A94B57"/>
<path transform="translate(243,599)" d="m0 0h2l2 4v4l4 2 25 1v1l-32 1-1-2z" fill="#806A58"/>
<path transform="translate(1016,499)" d="m0 0 6 2 17 5 12 1-2 4-1-1-27-5-5-4z" fill="#D5B699"/>
<path transform="translate(1023,181)" d="m0 0h2v15l-5-3-2-5 1-5z" fill="#57342D"/>
<path transform="translate(233 1e3)" d="m0 0 14 1v1h-15l-1 4-10 1-1 2v-3l-4-2-2-3 9 1 2 2 4 1 2-4z" fill="#8D7062"/>
<path transform="translate(751,1053)" d="m0 0 4 1 2 5v3h-14v-1l5-1 1-3h-2l1-3z" fill="#996956"/>
<path transform="translate(269,648)" d="m0 0h6l2 1v7l-4 2-4-2-1-4z" fill="#3D4D5A"/>
<path transform="translate(1073,249)" d="m0 0 5 5 3 1v3l-5 4-5 5-5 3h-5l-1-2 10-3 5-5v-3l-3-3z" fill="#F1E0CF"/>
<path transform="translate(808,1041)" d="m0 0 6 1 52 1v1l-58 1z" fill="#462425"/>
<path transform="translate(1083,885)" d="m0 0h5l3 3v12l-1-4h-3l-1 2v-7l1-3-4 1-3 3v-5z" fill="#FCE4CD"/>
<path transform="translate(903,395)" d="m0 0h3v3l-4 1 5 1-1 7-5-2-3-4v-3l-3-1z" fill="#764E3D"/>
<path transform="translate(969,974)" d="m0 0h1l1 9h1v21l-1 6h-1l-1-10z" fill="#996E62"/>
<path transform="translate(1021,845)" d="m0 0 6 1v10l-4 2-2-1-1-10z" fill="#C38C56"/>
<path transform="translate(915,391)" d="m0 0 7 6 15 11v2h-3l-2-3-4-2v-2l-8-1-5-7z" fill="#CA9A6F"/>
<path transform="translate(901,549)" d="m0 0 2 2-1 27h-2l-1-17-1-2z" fill="#553027"/>
<path transform="translate(192,809)" d="m0 0 3 1 3 5 6 7 2 1-1 3-1-2-6-1-2-6h-4z" fill="#C49062"/>
<path transform="translate(763,628)" d="m0 0h14l-1 5h-11l-2-1z" fill="#F7EEE6"/>
<path transform="translate(215,980)" d="m0 0 9 1 10 4v4l-5-1-6-2v-2l-5-1z" fill="#F5D6B7"/>
<path transform="translate(921,402)" d="m0 0 7 1 1 2 5 3-3 1-9-4v18l-2-1v-14z" fill="#73605C"/>
<path transform="translate(1008,875)" d="m0 0h1v10l-1 1-1 17-3-1v-12-3l1-3h3z" fill="#D1A57D"/>
<path transform="translate(214,1104)" d="m0 0 17 1 1 4-7 1v-2l-6 1-2-3z" fill="#B08266"/>
<path transform="translate(1111,489)" d="m0 0h13l-1 5h-11z" fill="#FCF5EE"/>
<path transform="translate(409,915)" d="m0 0h50l-1 2h-45v2l-5-1z" fill="#956F63"/>
<path transform="translate(248,834)" d="m0 0h3v4l-4 1 1 2-6 1-4-3 2-4h6z" fill="#C24A5C"/>
<path transform="translate(232,648)" d="m0 0 4 1 2 5h2v2l-2 1h-6v-3h-3l2-5z" fill="#3D4D59"/>
<path transform="translate(755,557)" d="m0 0 3 1v2l2 1-1 15h-3l-1-5h2l-2-2z" fill="#482423"/>
<path transform="translate(233,856)" d="m0 0h16v4h-13l-3-2z" fill="#BD875C"/>
<path transform="translate(861,411)" d="m0 0 2 4 2-1v10l-2 2h-3l-1-5 1-9z" fill="#764E3D"/>
<path transform="translate(1077,264)" d="m0 0 1 3-4 8h-2l-1 2-5-1 1-4 7-5z" fill="#D2DAE0"/>
<path transform="translate(279,232)" d="m0 0h4l3 6v6l-4-2-4-1-1-7h2z" fill="#543028"/>
<path transform="translate(252,862)" d="m0 0 2 1v9l-6 4-2 2-10-1-2-4 10 2 5-3 2-3z" fill="#E7DBCF"/>
<path transform="translate(378,648)" d="m0 0 13 1 14 5v1l-10-1-16-4z" fill="#CCD2D9"/>
<path transform="translate(905,189)" d="m0 0 2 1-3 14-2 11h-1v-23h2z" fill="#D1A479"/>
<path transform="translate(218,984)" d="m0 0h5v2l6 1 5 2v6l-3-1v-2l-6-2-7-5z" fill="#8F624A"/>
<path transform="translate(759,563)" d="m0 0h1v14h23v1l-20 1-6 1-4-2 4-2h1z" fill="#80685D"/>
<path transform="translate(858,226)" d="m0 0 6 1h13v3l-2 1h-12l-5-3z" fill="#AC7C58"/>
<path transform="translate(810,210)" d="m0 0h3v2l5 2v2l3 1-3 2-6-1-3-4z" fill="#FDF9F6"/>
<path transform="translate(254,774)" d="m0 0 4 1-2 7-1 1h-5l-1-4 2-4z" fill="#5F382C"/>
<path transform="translate(1114,431)" d="m0 0h1l1 6 18 1v1h-25l-7-2v-4h3v4h9z" fill="#4B5861"/>
<path transform="translate(403,591)" d="m0 0h1l1 9h2l1 7-2 2-4-3v-10z" fill="#9D6E60"/>
<path transform="translate(238,326)" d="m0 0h2l-2 5 1 2 4 2h-15l-1-4h8l2-4z" fill="#E3C09E"/>
<path transform="translate(1049,934)" d="m0 0h6l-2 3-12 2h-5v-3z" fill="#D8AF87"/>
<path transform="translate(1084,887)" d="m0 0 3 1-1 4h-2v10l-4 1 1-12z" fill="#704737"/>
<path transform="translate(1060,819)" d="m0 0h2l1 5-2 4-5-1-2-5 2-2z" fill="#C2465C"/>
<path transform="translate(297,625)" d="m0 0 5 5 12 13-1 3h-5l2-2-8-10-5-7z" fill="#A17261"/>
<path transform="translate(904,502)" d="m0 0h1l-1 26-2-4-1-1 1-14z" fill="#542F26"/>
<path transform="translate(907,423)" d="m0 0h1l1 23 1 9h-2v9h-1z" fill="#CE9F75"/>
<path transform="translate(1106,431)" d="m0 0h8v6h-9l-1-5z" fill="#2B2428"/>
<path transform="translate(791,146)" d="m0 0h3l-2 15 2 18v6h-1l-2-12-1-17v-7z" fill="#9F6C59"/>
<path transform="translate(1049,633)" d="m0 0h2v4h-3v5h-2l-1 4-2 2 1 2-6-1 2-5 5-5h2v-3h2z" fill="#C2465C"/>
<path transform="translate(408,433)" d="m0 0 6 1 1 5h-7l-7-2v-2h6z" fill="#F6D6B8"/>
<path transform="translate(1047,226)" d="m0 0h20v2l-6 2h-10l-4-2z" fill="#7F5541"/>
<path transform="translate(190,470)" d="m0 0 25 1 7 1v1l-8 1-22-2z" fill="#552F28"/>
<path transform="translate(895,232)" d="m0 0 1 3-5 5-3 1v2l-8 4-11 3 3-3 13-5z" fill="#EAEDF0"/>
<path transform="translate(781,623)" d="m0 0 14 1v4h-3v-2l-7 1h-9v-2z" fill="#875D3F"/>
<path transform="translate(798,200)" d="m0 0 2 2 1 3h3l2-3v9h-2v-2l-2 1-2 7h-1z" fill="#895E3F"/>
<path transform="translate(240,741)" d="m0 0 18 1-2 3-5 1-10-1-2-3z" fill="#704C3F"/>
<path transform="translate(185,491)" d="m0 0h2v13l1 13h-4v-12z" fill="#764E3D"/>
<path transform="translate(476,501)" d="m0 0h21l-1 2-11 1h-9z" fill="#392728"/>
<path transform="translate(887,194)" d="m0 0h6l-2 8h-5l-1-5z" fill="#5E3730"/>
<path transform="translate(249,774)" d="m0 0h2l-1 8 5 1v1h-9l-2-1-3 1v-2l5-5z" fill="#B28260"/>
<path transform="translate(1106,198)" d="m0 0h2v5l-3 3-2 6h-2l1-10z" fill="#6B4438"/>
<path transform="translate(875,943)" d="m0 0 4 1-1 10-2 1-2-1v-10z" fill="#666C6F"/>
<path transform="translate(159,444)" d="m0 0 4 2-1 4-1 2 3 1-7 1-1-5 2-4z" fill="#542E25"/>
<path transform="translate(941,368)" d="m0 0 7 1 6 4 4 6v2l-5-1-3-7-9-4z" fill="#F2D7BD"/>
<path transform="translate(846,194)" d="m0 0h5l2 4-1 4h-4l-2-4z" fill="#473633"/>
<path transform="translate(1036,192)" d="m0 0 5 1 1 1-1 7-5-1z" fill="#60392F"/>
<path transform="translate(372,911)" d="m0 0 7 2v12h-1l-1-8-2 7-2 2 2-11-2-1z" fill="#C59162"/>
<path transform="translate(256,224)" d="m0 0h4l-1 5-4 3h-3l1-2-4-1 2-1v-2l5-1z" fill="#774F3E"/>
<path transform="translate(473,1023)" d="m0 0 13 1-1 2h-21v-2z" fill="#3D454E"/>
<path transform="translate(493,612)" d="m0 0h23l-4 3-8-1-3 1-5-1-5 1-1-2z" fill="#9D6E60"/>
<path transform="translate(243,548)" d="m0 0h2l1 5-1 9v8l-2 1z" fill="#885E3F"/>
<path transform="translate(857,444)" d="m0 0h2l-1 18-2 10h-1v-12z" fill="#55575C"/>
<path transform="translate(859,124)" d="m0 0h9l7 2v1h-21l2-2z" fill="#897775"/>
<path transform="translate(969,1038)" d="m0 0h39v1l-37 1-2 1-2-2z" fill="#4B2725"/>
<path transform="translate(241,612)" d="m0 0 3 1v13h-2l-1 2-1-11z" fill="#1E242B"/>
<path transform="translate(293,1244)" d="m0 0 4 1 1 3h2l1 4-6 1-3-4 1-3h2z" fill="#C1455B"/>
<path transform="translate(1016,885)" d="m0 0h5l2 6-1 2h-4l-2-4z" fill="#623B31"/>
<path transform="translate(248,808)" d="m0 0h2l4 10-1 5-2 1-3-12z" fill="#895D48"/>
<path transform="translate(291,656)" d="m0 0 5 1 15 5v1h-10v-1l-7-2-1-3z" fill="#FEFAF7"/>
<path transform="translate(366,492)" d="m0 0 2 1 1 3v23h-1z" fill="#845B3E"/>
<path transform="translate(938,375)" d="m0 0 4 1-1 9h-3l-2-5v-3h2z" fill="#D4A980"/>
<path transform="translate(885,181)" d="m0 0h8l1 4-11 1v-4z" fill="#96694D"/>
<path transform="translate(212 1e3)" d="m0 0 4 1 4 3 1 5-4-1-5-5z" fill="#F1D0B3"/>
<path transform="translate(1053,885)" d="m0 0h5l-1 5-1 3h-4l-1-5z" fill="#59332D"/>
<path transform="translate(382,867)" d="m0 0h16l-3 3h-13z" fill="#6F6565"/>
<path transform="translate(1050,506)" d="m0 0h10l2 6 2 1 9 1 2 2-13-1-4-3v-5h-8z" fill="#957064"/>
<path transform="translate(264,266)" d="m0 0 2 1v5h-9v-4z" fill="#8E5D44"/>
<path transform="translate(273,260)" d="m0 0 5 1v7l-4 1-2 2-1-10z" fill="#6B4232"/>
<path transform="translate(844,183)" d="m0 0h10l3 3-3 1-13-1z" fill="#A37151"/>
<path transform="translate(371,928)" d="m0 0 1 4h3l1-2v5l-7 1-1 2-1-3-2-1 1-2h4z" fill="#BD8A60"/>
<path transform="translate(997,870)" d="m0 0 3 1 4-1 5 2-2 1v5h-2v-3l-8-1z" fill="#A76646"/>
<path transform="translate(263,802)" d="m0 0h5l1 4-2 4h-4z" fill="#4D3731"/>
<path transform="translate(171,543)" d="m0 0 8 2 1 5h-3-5l-1-5-2-1z" fill="#936350"/>
<path transform="translate(1019,873)" d="m0 0 5 1 1 3-12 1 2-4z" fill="#A8724F"/>
<path transform="translate(242,832)" d="m0 0h7l2 2-5 2h-6l-3 1 1-4z" fill="#A93851"/>
<path transform="translate(1021,504)" d="m0 0 13 3-4 2-6 1-2-1v-2h-2z" fill="#AE7D61"/>
<path transform="translate(1054,200)" d="m0 0h3l-2 7v8l-4-1 1-8z" fill="#855A45"/>
<path transform="translate(1019,870)" d="m0 0h16l2 1v3l-13-2-5-1z" fill="#D1A57A"/>
<path transform="translate(204,722)" d="m0 0 6 1 1 4-2 1-1 2-5-4z" fill="#3D2628"/>
<path transform="translate(179,716)" d="m0 0 4 1-9 8-2 2-5-2v-1l7-2z" fill="#5C3D38"/>
<path transform="translate(260,278)" d="m0 0 5 1v7h-5z" fill="#3D2B2B"/>
<path transform="translate(1074,192)" d="m0 0 5 1-1 4-1 3h-4v-7z" fill="#463331"/>
<path transform="translate(192,818)" d="m0 0 3 2v3l6 4 2 4-4-1-5-4-2-5z" fill="#FEE0C3"/>
<path transform="translate(228,802)" d="m0 0 5 1v7h-5z" fill="#3D2F2E"/>
<path transform="translate(417,477)" d="m0 0 2 1v14l-2-4-2-3v-5z" fill="#9D6E60"/>
<path transform="translate(951,383)" d="m0 0 4 1 3 4 3 1v4l-4-1-6-7z" fill="#A46D51"/>
<path transform="translate(458,284)" d="m0 0h15v2l-20 1v-1h5z" fill="#442323"/>
<path transform="translate(889,141)" d="m0 0 6 3v6h-4z" fill="#CE9F73"/>
<path transform="translate(1147,119)" d="m0 0 4 1v10l-4-1-1-8z" fill="#653E31"/>
<path transform="translate(963,1040)" d="m0 0h3l-1 2zm-1 2 6 1 2 2-23-1v-1z" fill="#58362E"/>
<path transform="translate(1012,833)" d="m0 0h2l-2 4-10 10-1-2 7-8z" fill="#AF7650"/>
<path transform="translate(285,650)" d="m0 0 5 5-1 3-6 1 1-8z" fill="#F4F0EC"/>
<path transform="translate(1117,630)" d="m0 0 2 2-1 13-2-4-1-8z" fill="#BC4D5D"/>
<path transform="translate(234,326)" d="m0 0 3 1-2 4-6 1-4-2 3-2 2 1v-2z" fill="#875D49"/>
<path transform="translate(1115,198)" d="m0 0h4 1v7l-6 2z" fill="#59332B"/>
<path transform="translate(201,1101)" d="m0 0 12 2-3 2h-5v5h-2v-8z" fill="#9A7868"/>
<path transform="translate(191,805)" d="m0 0 2 1-1 11-4-2v-7l3 1z" fill="#5D362D"/>
<path transform="translate(292,371)" d="m0 0 3 4 8 16-1 3-10-19z" fill="#2B343C"/>
<path transform="translate(214,321)" d="m0 0 3 2 5 1 1 3-6 1-6-4 3-1z" fill="#63463E"/>
<path transform="translate(1104,1019)" d="m0 0h1l1 6v12l-1 1h-7v-1l5-1 1-5z" fill="#6B483B"/>
<path transform="translate(227,789)" d="m0 0 6 1v4h-6l-2-1z" fill="#8F5D43"/>
<path transform="translate(243,779)" d="m0 0 2 1-4 2v2l-7 2h-9l4-2 8-2z" fill="#895B43"/>
<path transform="translate(871,205)" d="m0 0h3l2 12-3 1z" fill="#7C5142"/>
<path transform="translate(1072,180)" d="m0 0h10l3 2-1 2-4-1h-8z" fill="#88563E"/>
<path transform="translate(1050,874)" d="m0 0h8v2h3v2l-12-1z" fill="#83553D"/>
<path transform="translate(1108,202)" d="m0 0 2 1-1 4-4 2v5l-2-1 2-9z" fill="#C2926A"/>
<path transform="translate(813,195)" d="m0 0h2v2l3 1v7l-3-1-2-4z" fill="#764D3E"/>
<path transform="translate(248,648)" d="m0 0h12v6l-3-3h-9z" fill="#C1CEE5"/>
<path transform="translate(1075,260)" d="m0 0 1 2-5 5-5 3h-5l-1-2 10-3z" fill="#FEE0C3"/>
<path transform="translate(214 1e3)" d="m0 0h6l4 5-3 1-1 2v-3l-4-2z" fill="#69463E"/>
<path transform="translate(165,456)" d="m0 0h3v9l-1 4h-2z" fill="#7D513D"/>
<path transform="translate(395,435)" d="m0 0 6 1 1 3-2 1h-6z" fill="#312B2D"/>
<path transform="translate(264,253)" d="m0 0 2 1-1 6-7 3 2-6z" fill="#BA865D"/>
<path transform="translate(905,194)" d="m0 0h2l1 10-2 7-1-3z" fill="#CDD2D7"/>
<path transform="translate(814,193)" d="m0 0 5 1 2 5v4h-2l-2-5-2-1v-2l-2-1z" fill="#F5E3D1"/>
<path transform="translate(481,870)" d="m0 0h5l5 5-1 2-2-2h-6z" fill="#A26549"/>
<path transform="translate(889,629)" d="m0 0h8l5 5 1 2-5-2-9-4z" fill="#EFD0B2"/>
<path transform="translate(1052,250)" d="m0 0h3v5l-2 1h-6z" fill="#F9FAFB"/>
<path transform="translate(904,197)" d="m0 0h1l1 11-2 5-2 1z" fill="#FEE0C3"/>
<path transform="translate(256,1109)" d="m0 0h7l-3 3h-2v2h5v1h-7l-1-5z" fill="#BA8355"/>
<path transform="translate(880,942)" d="m0 0 2 1-1 12-2 1 1-4h-2l1-9z" fill="#93A9E6"/>
<path transform="translate(978,1032)" d="m0 0 2 1-1 1 4 2v1h-7-2l-4-1z" fill="#7D5546"/>
<path transform="translate(254,860)" d="m0 0 7 1-1 5-1-3-5 1-1-1-2 2-1-4z" fill="#DCDDDC"/>
<path transform="translate(1121,430)" d="m0 0h9v3h-11l-2-2z" fill="#A97B68"/>
<path transform="translate(892,179)" d="m0 0h6v3l-3 1 1 5-4-3h2z" fill="#EBC8A6"/>
<path transform="translate(1043,158)" d="m0 0 2 3 3 4v4l-3 1-2-6z" fill="#976955"/>
<path transform="translate(505,891)" d="m0 0 4 4-4 4-5 1 1-2h2z" fill="#AD7354"/>
<path transform="translate(1074,848)" d="m0 0h2l1 2v11l-2 1z" fill="#D8AF87"/>
<path transform="translate(195,807)" d="m0 0h7l1 4h-10v-3z" fill="#CEA076"/>
<path transform="translate(155,204)" d="m0 0 2 1-1 2-3 1-1 5-2-1-2 4 1-7z" fill="#6E4E43"/>
<path transform="translate(252,862)" d="m0 0 2 1v9l-5 1 2-4z" fill="#C2C8D0"/>
<path transform="translate(172,771)" d="m0 0 5 1v2l4 1v2h-5l-4-4z" fill="#522F2C"/>
<path transform="translate(899,614)" d="m0 0h1v17l-8-2v-1h7z" fill="#735449"/>
<path transform="translate(294,427)" d="m0 0 3 1v3h2l1 3 3 2v2l-4-2-4-5z" fill="#273038"/>
<path transform="translate(179,260)" d="m0 0 2 1v8l-2-2-2 3v-7z" fill="#714E43"/>
<path transform="translate(262,741)" d="m0 0 10 1 1 3-7-1-5-1z" fill="#65463E"/>
<path transform="translate(180,200)" d="m0 0 5 1-2 5-4-1z" fill="#613A2E"/>
</svg>
